<svg xmlns="http://www.w3.org/2000/svg" xmlns:xlink="http://www.w3.org/1999/xlink" viewBox="0 0 100 100"><defs><style>.cls-1,.cls-13,.cls-20,.cls-4,.cls-5,.cls-6,.cls-9{fill:none;}.cls-2{isolation:isolate;}.cls-3{fill:#eaeaea;}.cls-4,.cls-5,.cls-6{stroke:#bcbec0;stroke-width:0.85px;}.cls-13,.cls-16,.cls-19,.cls-20,.cls-4,.cls-5,.cls-6,.cls-9{stroke-miterlimit:10;}.cls-5{stroke-dasharray:1.34 1.78;}.cls-6{stroke-dasharray:1.25 1.66;}.cls-7{clip-path:url(#clip-path);}.cls-8{fill:#231f20;opacity:0.1;}.cls-13,.cls-20,.cls-9{stroke:#424242;stroke-linecap:square;}.cls-9{stroke-width:0.65px;}.cls-10{fill:#fdd835;}.cls-11{fill:#203569;}.cls-12,.cls-16{fill:#fff;}.cls-13,.cls-16{stroke-width:0.86px;}.cls-14{fill:#424242;}.cls-15{fill:#f2f2f2;mix-blend-mode:multiply;}.cls-16{stroke:#444;}.cls-17{clip-path:url(#clip-path-2);}.cls-18,.cls-19{fill:#0091ff;fill-rule:evenodd;}.cls-19{stroke:#0091ff;stroke-width:0.44px;}.cls-20{stroke-width:0.65px;}</style><clipPath id="clip-path"><circle class="cls-1" cx="49.95" cy="50" r="43"/></clipPath><clipPath id="clip-path-2"><rect class="cls-1" x="37.48" y="29.65" width="24.94" height="21.93"/></clipPath></defs><title>web_ill_empty_state_wallet-address</title><g class="cls-2"><g id="Layer_1" data-name="Layer 1"><circle class="cls-3" cx="49.95" cy="50" r="43"/><circle class="cls-1" cx="49.95" cy="50" r="43"/><path class="cls-4" d="M71.8,41.28h.64"/><path class="cls-5" d="M74.21,41.51a13.66,13.66,0,0,1,11,13,14,14,0,0,1-.93,5.55"/><path class="cls-4" d="M84,60.88q-.13.29-.28.57"/><path class="cls-4" d="M18,51.46l-.26-.58"/><path class="cls-6" d="M17.15,49.33a24.35,24.35,0,0,1,5.37-25.16A23.6,23.6,0,0,1,55.18,23"/><path class="cls-4" d="M55.79,23.59l.46.45"/><g class="cls-7"><path class="cls-8" d="M73.07,52V48.6a6,6,0,0,0-5.9-6H28.6l-4.42.25-2,1.25c.43-1-1.44,2.84-.94,4.37a11.83,11.83,0,0,0,2.44,2.92c.56.28,7.72.77,7.72.77Z"/><path class="cls-9" d="M27.12,53.26H74.26a6,6,0,0,1,5.91,6V88.78"/><path class="cls-10" d="M80.43,80.59H71.26a5.46,5.46,0,0,1-5.41-5.5h0a5.46,5.46,0,0,1,5.41-5.5h9.16"/><line class="cls-9" x1="80.21" y1="59.32" x2="80.21" y2="89.97"/><path class="cls-11" d="M72.86,75.09a1.82,1.82,0,0,1-1.8,1.83h0a1.82,1.82,0,0,1-1.81-1.83h0a1.82,1.82,0,0,1,1.81-1.83h0a1.82,1.82,0,0,1,1.8,1.83Z"/><path class="cls-12" d="M21.06,48.45l0,39.07,1.32,4.17,2.76,2.45,49.36.26,3.27-1,2.33-3.76,0-27.2s2.27-9.92-6.41-10.7l-48.07.09A6,6,0,0,1,21.06,48.45Z"/><path class="cls-13" d="M32.34,42.55l34.84-.07a6,6,0,0,1,5.9,6v3.08"/><path class="cls-13" d="M37,51.83H25.82a4.62,4.62,0,0,1-4.6-4.64h0a4.62,4.62,0,0,1,4.6-4.64H36.5"/><path class="cls-13" d="M80.14,79.12H71.26a5.46,5.46,0,0,1-5.41-5.5h0a5.46,5.46,0,0,1,5.41-5.5h8.88"/><path class="cls-14" d="M72.86,73.62a1.82,1.82,0,0,1-1.8,1.83h0a1.82,1.82,0,0,1-1.81-1.83h0a1.82,1.82,0,0,1,1.81-1.83h0a1.82,1.82,0,0,1,1.8,1.83Z"/><path class="cls-13" d="M27.15,51.85H74.31a6,6,0,0,1,5.91,6V88.5a6,6,0,0,1-5.91,6H27.15a6,6,0,0,1-5.91-6V47.05"/><path class="cls-15" d="M80.14,79.12s-11.34-.31-12.56-.85L81.45,95.15Z"/></g><path class="cls-16" d="M37.22,26.52H62.61a3,3,0,0,1,3,3V51.8a0,0,0,0,1,0,0H34.26a0,0,0,0,1,0,0V29.48A3,3,0,0,1,37.22,26.52Z"/><g class="cls-17"><path class="cls-18" d="M59.1,43.69v2h-2v-2H51V44q0,4.76,0,9.52c0,.09,0,.19,0,.28h2q0-3,0-6s0-.06,0-.1h2v2h6.09V43.69Z"/><path class="cls-18" d="M59.08,53.82q0-.86,0-1.71c0-.09,0-.19,0-.33h2v2Z"/><path class="cls-18" d="M55,53.82v-2h2v2Z"/><path class="cls-18" d="M38.85,31.56V41.69H49v-.3q0-4.77,0-9.54c0-.09,0-.19,0-.28Zm8.08,8.08h-6v-6h6Z"/><path class="cls-18" d="M51,31.56c0,.09,0,.19,0,.28q0,4.77,0,9.54v.3H61.12V31.56Zm8.09,8.08H53v-6h6Z"/><path class="cls-18" d="M49,53.54q0-4.77,0-9.54v-.3H38.85V53.82H49C49,53.73,49,53.64,49,53.54Zm-2-1.77h-6v-6h6Z"/><path class="cls-19" d="M42.91,37.63v-2h2a.8.8,0,0,1,0,.14c0,.57,0,1.13,0,1.69,0,.06-.07.17-.11.18Z"/><path class="cls-19" d="M55.07,35.61h2v2h-2Z"/><path class="cls-19" d="M42.91,49.76v-2h2v2Z"/></g><path class="cls-20" d="M27.15,51.85H74.31a6,6,0,0,1,5.91,6"/></g></g></svg>